<svg xmlns="http://www.w3.org/2000/svg" width="800" height="600" viewBox="0 0 800 600"><rect width="800" height="600" fill="#F7F7F7"></rect><g fill="#CCCCCC"><path d="M598 300l-22-58c-6-16-21-27-38-27H262c-17 0-32 11-38 27l-22 58c-19 6-32 24-32 45v70c0 11 9 20 20 20h14v18c0 15 12 27 27 27s27-12 27-27v-18h224v18c0 15 12 27 27 27s27-12 27-27v-18h14c11 0 20-9 20-20v-70c0-21-13-39-32-45zM262 255h276l19 50H243l19-50zM250 380c-14 0-25-11-25-25s11-25 25-25 25 11 25 25-11 25-25 25zm300 0c-14 0-25-11-25-25s11-25 25-25 25 11 25 25-11 25-25 25z"></path></g><text x="400" y="470" font-family="Inter, Arial, sans-serif" font-size="24" font-weight="700" fill="#B4B4B4" text-anchor="middle">Fahrzeugfoto folgt</text></svg>